HIERARCHY
ROOT Hips
{
   OFFSET 0.00000 0.00000 0.00000
   CHANNELS 6 Xposition Yposition Zposition Zrotation Xrotation Yrotation
   JOINT RightUpLeg
   {
      OFFSET -8.945800 -8.667070 0.101652
      CHANNELS 3 Zrotation Xrotation Yrotation
      JOINT RightLeg
      {
         OFFSET 0.000000 -44.422697 1.372700
         CHANNELS 3 Zrotation Xrotation Yrotation
         JOINT RightFoot
         {
            OFFSET 0.253549 -42.092399 -1.460590
            CHANNELS 3 Zrotation Xrotation Yrotation
            JOINT RightToes
            {
               OFFSET 0.040000 -4.415090 8.499099
               CHANNELS 3 Zrotation Xrotation Yrotation
               End Site
               {
                  OFFSET -0.080000 -0.137448 9.779790
               }
            }
         }
      }
   }
   JOINT Spine
   {
      OFFSET 0.000000 11.890501 0.000000
      CHANNELS 3 Zrotation Xrotation Yrotation
      JOINT Spine1
      {
         OFFSET 0.000000 25.657401 0.127663
         CHANNELS 3 Zrotation Xrotation Yrotation
         JOINT HEad
         {
            OFFSET 0.000000 8.734161 0.011341
            CHANNELS 3 Zrotation Xrotation Yrotation
            End Site
            {
               OFFSET -0.290000 12.774200 2.513950
            }
         }
         JOINT LeftShoulder1
         {
            OFFSET 8.990000 -0.362252 -0.220000
            CHANNELS 3 Zrotation Xrotation Yrotation
            JOINT LeftArm
            {
               OFFSET 10.282700 -0.003380 0.322123
               CHANNELS 3 Zrotation Xrotation Yrotation
               JOINT LeftForeArm
               {
                  OFFSET 32.766900 0.099144 -1.424340
                  CHANNELS 3 Zrotation Xrotation Yrotation
                  JOINT LeftHand
                  {
                     OFFSET 27.564301 0.085362 1.022160
                     CHANNELS 3 Zrotation Xrotation Yrotation
                     End Site
                     {
                        OFFSET 16.744301 -0.600000 1.502910
                     }
                  }
               }
            }
         }
         JOINT RightShoulder
         {
            OFFSET -8.990000 -0.362252 -0.220000
            CHANNELS 3 Zrotation Xrotation Yrotation
            JOINT RightArm
            {
               OFFSET -10.282700 -0.003380 0.322123
               CHANNELS 3 Zrotation Xrotation Yrotation
               JOINT RightForeArm
               {
                  OFFSET -32.897098 0.099144 -1.424340
                  CHANNELS 3 Zrotation Xrotation Yrotation
                  JOINT RightHand
                  {
                     OFFSET -27.492101 0.085362 1.022160
                     CHANNELS 3 Zrotation Xrotation Yrotation
                     End Site
                     {
                        OFFSET -16.631201 -0.600000 1.502910
                     }
                  }
               }
            }
         }
      }
   }
   JOINT LeftUpLeg
   {
      OFFSET 8.945800 -8.667070 0.101652
      CHANNELS 3 Zrotation Xrotation Yrotation
      JOINT LeftLeg
      {
         OFFSET 0.000000 -44.422697 1.372700
         CHANNELS 3 Zrotation Xrotation Yrotation
         JOINT LeftFoot
         {
            OFFSET -0.253549 -42.092399 -1.460590
            CHANNELS 3 Zrotation Xrotation Yrotation
            JOINT LeftToes
            {
               OFFSET -0.040000 -4.415090 8.499099
               CHANNELS 3 Zrotation Xrotation Yrotation
               End Site
               {
                  OFFSET 0.080000 -0.047448 9.779790
               }
            }
         }
      }
   }
}
MOTION
Frames: 16
Frame Time: 0.016667
-215.531079 101.142653 386.813158 32.511304 16.810241 93.086538 -21.500874 21.165433 -14.038356 21.669487 16.308562 -6.420351 -34.930253 16.836964 23.634840 2.298986 -11.350406 -36.453672 -27.975669 36.862572 31.756411 0.565626 30.140109 -10.779000 -5.715683 10.638530 -9.754045 -38.553238 106.054321 41.072933 -117.864791 59.259794 -221.500111 -30.893717 67.664785 -29.167981 -74.450421 -36.665603 -66.737949 -73.776650 51.886099 94.140975 118.498195 -68.571500 168.922709 33.189716 -2.652867 122.004691 9.259278 29.424400 8.760098 21.579441 -23.934026 69.449582 58.991756 57.840644 -49.393336 14.628141 9.541903 5.678709 0.669390 -1.697821 -6.066327
-216.019169 101.218022 386.894716 28.614924 13.352391 96.150772 -17.202310 18.251606 -16.888222 21.290067 15.201961 -6.905748 -34.323067 17.521457 23.369364 1.745740 -11.330030 -34.538672 -24.486483 34.049886 29.665168 1.245422 31.185421 -10.603179 -6.088571 11.355848 -9.319972 -39.414296 109.881884 47.934100 -114.315619 65.216012 -227.028644 -31.643536 71.726180 -28.118089 -75.101543 -37.260728 -69.138624 -70.562917 53.135286 91.640505 119.331314 -69.258453 169.404742 35.695638 -2.248698 123.288698 7.744646 29.563019 9.036122 22.300996 -25.352564 64.938611 47.037655 54.933654 -39.966589 13.393503 9.175078 4.306300 0.487648 -1.752833 -5.671806
-216.235711 101.193436 386.762346 25.250024 9.827411 100.134521 -13.202569 15.860143 -19.249497 20.430856 15.349904 -7.906028 -31.931312 18.153106 23.093049 1.148052 -11.398227 -32.405539 -22.569023 33.159698 28.982928 1.022333 31.508913 -9.458746 -9.122349 13.040336 -8.253584 -38.556575 112.237179 55.462249 -109.451398 69.917204 -231.109286 -32.285263 75.327192 -28.516333 -75.155604 -38.515170 -71.142151 -66.689728 53.809924 89.085181 120.507992 -70.026760 169.511198 37.149006 -4.711636 124.283912 6.652334 28.544250 6.199311 22.523329 -26.699602 59.723707 37.271581 52.132959 -31.585284 11.366061 8.383904 4.227159 0.238505 -1.788322 -4.701402
-216.190430 100.926007 386.479296 23.482354 7.201123 102.534451 -10.586812 14.228337 -20.656439 19.040433 16.726204 -9.385593 -28.522868 18.903047 22.920942 0.499598 -11.495411 -29.909477 -19.289366 32.268576 26.792631 1.425819 31.675948 -9.272263 -10.251714 14.250365 -7.488628 -40.530483 114.231021 61.677032 -107.216054 74.123344 -234.023837 -30.938944 78.869724 -28.768139 -75.316523 -39.368688 -73.230706 -64.014609 54.886953 86.897580 120.248827 -70.993669 169.049026 38.067994 -5.419886 125.672352 6.064647 28.476522 6.513991 21.803880 -25.858686 53.210035 28.077325 48.901006 -22.911038 9.357934 7.538119 4.602245 -0.013253 -1.599398 -3.569399
-215.842091 100.379246 386.030649 22.965773 4.673053 104.941943 -8.161488 13.352392 -20.958120 17.992014 18.983763 -11.121694 -24.326764 19.793297 23.187003 -0.282381 -11.858334 -26.979131 -15.390271 31.726410 24.531089 2.102931 32.196323 -8.949811 -9.117561 14.804934 -7.166380 -43.400081 116.151916 67.539670 -106.004741 77.588149 -235.680786 -29.700685 82.960516 -29.907302 -75.699383 -39.235482 -75.502304 -62.277262 56.050462 85.429602 119.268982 -71.576148 167.334457 38.749200 -7.141290 125.504781 7.409356 27.776996 8.132114 21.245338 -23.822878 45.178522 20.002532 44.999783 -14.657014 7.273507 6.612777 5.078054 -0.253026 -1.251779 -2.429493
-215.298974 99.612835 385.584673 24.029311 3.351053 107.265717 -6.047273 13.927330 -21.353343 17.158755 20.376268 -13.695906 -21.428117 20.288404 22.253550 -0.937197 -12.517492 -24.954994 -11.437423 28.732847 21.879440 3.234438 33.087721 -8.917766 -6.320434 14.521320 -7.232270 -47.094906 117.819233 72.657742 -105.053692 80.700625 -235.980386 -28.268439 87.230716 -31.295855 -76.016440 -38.973882 -77.625073 -61.279364 58.305753 83.966569 117.902357 -72.783951 165.072353 39.418681 -3.262745 129.142321 9.434759 27.801107 10.928827 21.494587 -19.404702 35.883287 12.631280 39.607601 -8.113910 -5.844294 4.595418 5.189152 -0.454330 -1.296434 -2.141555
-214.527318 98.613871 385.142092 23.594503 2.605098 109.688774 -4.829573 13.429990 -22.022852 17.301054 21.089309 -16.780831 -19.108035 20.114974 20.822682 -1.608421 -13.627089 -23.394066 -7.692920 27.910687 19.463196 3.791897 32.764042 -8.878028 -2.111379 13.845742 -7.651751 -51.673403 119.090113 77.523542 -105.141917 83.636028 -235.649613 -26.808711 91.826409 -32.955355 -76.412612 -38.047767 -79.666985 -60.220555 59.353818 82.789235 117.129002 -73.841100 162.948615 39.022770 -3.784014 129.777214 8.271380 27.530387 8.614711 20.624885 -17.606938 26.326039 6.199294 34.774122 -1.260228 -1.127236 3.835733 5.351119 -0.547171 -0.765268 -2.254320
-213.610074 97.427596 384.621920 23.720152 2.041026 111.196736 -3.923133 13.510971 -22.491864 17.209498 21.686762 -20.107208 -16.945622 19.834024 19.060454 -2.236318 -14.992060 -22.270230 -5.012163 26.102529 17.246808 4.175678 32.773580 -8.615343 0.806745 13.228512 -7.897377 -56.240959 119.853824 81.697566 -105.348715 85.749576 -234.764803 -25.587598 96.344162 -34.346737 -76.673422 -37.868409 -81.427589 -59.475184 60.581155 82.559700 115.541734 -74.106480 161.048675 38.395529 -2.960502 130.509356 6.887998 27.664491 6.118063 21.576788 -15.466055 17.020285 1.811359 29.841831 4.764855 -12.694812 2.799104 6.075586 -0.573454 0.167815 -2.400165
-212.604558 96.207379 384.030489 24.409462 1.204861 112.430754 -3.014709 14.123614 -22.187610 17.750345 22.505490 -22.553922 -14.445749 20.027807 17.835255 -2.910878 -16.574113 -21.025851 -2.267890 24.417339 15.096878 4.539097 33.193029 -8.232678 2.909157 12.924104 -8.057242 -61.011102 120.231875 85.259196 -105.942695 87.157974 -233.529850 -24.575140 100.801810 -35.422198 -76.797390 -38.215424 -82.776763 -58.933044 61.796348 82.636676 113.778364 -74.095982 159.192134 37.684688 -1.518008 131.231867 5.555859 27.699306 2.690204 22.321239 -14.228514 7.416610 -1.856065 26.346840 11.164758 -7.712236 2.499551 6.606781 -0.591768 1.060196 -2.598682
-211.521565 94.854744 383.338694 25.785149 0.387247 113.571026 -2.415180 15.491567 -21.056642 18.783310 23.780927 -24.402415 -11.624375 20.332029 17.160907 -3.650241 -18.363329 -19.615415 0.144475 22.667588 13.083588 4.759369 33.713663 -7.797641 4.495158 12.535979 -8.180196 -66.092011 120.397903 87.990691 -106.850817 87.917259 -231.989233 -24.228860 105.288930 -36.568266 -76.897084 -38.777316 -84.093166 -58.601698 62.899711 83.009003 111.926248 -73.929708 157.360715 36.607287 0.593274 131.865927 3.167485 27.996092 -2.125721 24.025238 -12.606392 -1.998102 -4.864310 23.440115 18.491573 -11.326130 1.480203 7.208442 -0.666650 1.536788 -2.600919
-210.357472 93.510808 382.525248 26.658753 -0.339733 113.305598 -3.042791 17.483952 -19.728317 19.992013 24.567378 -24.938238 -8.678065 20.682530 16.619611 -4.386557 -20.358881 -18.255994 2.872984 20.896071 10.876490 5.224509 33.399646 -7.544212 6.095897 11.967991 -8.338386 -70.721561 120.366156 90.058769 -107.705902 88.210309 -230.272151 -23.245569 109.401155 -36.239870 -76.512011 -40.397212 -84.920739 -58.790075 63.220975 83.151160 110.190766 -73.501291 155.627773 35.389249 2.039865 131.946223 -0.901238 28.392482 -9.478333 25.408198 -11.414291 -11.358138 -7.780406 21.358408 26.464227 -11.155765 0.550073 7.763105 -0.785479 1.572895 -2.583872
-209.139039 92.176961 381.525530 28.262544 -1.036835 112.102939 -4.202445 21.005967 -18.145125 21.541083 25.125595 -24.281947 -5.594807 20.639800 16.409439 -5.152968 -22.835361 -16.949014 4.275570 17.759981 9.587967 5.941392 32.894239 -6.719515 7.777373 10.288836 -8.577692 -74.753791 121.009874 91.352790 -107.755605 87.816630 -228.198068 -22.327122 114.090961 -34.885970 -76.185392 -42.075396 -85.493157 -59.086368 63.013201 83.521705 109.300929 -72.836208 152.540787 33.549042 1.659773 129.892358 -8.233796 29.261244 -20.891585 27.196855 -9.527627 -21.373798 -10.443136 19.766182 34.974376 -13.022658 -0.364958 7.882825 -0.960837 0.937168 -2.981700
-207.895238 90.997532 380.480379 30.056565 -1.424175 111.885554 -5.387003 23.767341 -15.924893 23.507756 26.451591 -23.557613 -2.548634 20.763037 16.272304 -5.856473 -25.239796 -15.780944 6.543955 15.971629 8.238489 6.061549 33.861308 -6.535150 9.392074 9.100365 -8.836718 -78.652429 121.183115 92.765505 -107.981001 88.134309 -226.574437 -22.670380 118.663554 -34.322862 -75.764413 -43.462946 -86.772964 -59.499076 62.696178 83.254084 108.130979 -71.849294 150.541303 32.556899 2.751729 129.994510 -12.711194 29.858428 -28.009491 28.336556 -8.029146 -31.633017 -13.395354 17.991490 44.289112 -13.791753 -0.654393 8.140681 -1.097258 0.552640 -3.477423
-206.700875 89.977120 379.442972 32.081959 -1.737275 111.557992 -6.797587 26.384997 -13.206515 24.927072 27.401601 -22.634175 0.270723 22.090012 15.828067 -6.365150 -26.482235 -14.880358 9.031522 14.442754 7.032432 6.039780 35.829745 -6.690984 10.944730 7.964559 -9.089238 -82.277429 120.985805 94.446592 -107.927876 89.193480 -225.358185 -23.477377 122.988279 -33.720729 -75.290330 -44.748678 -88.324366 -59.885589 62.655142 82.900738 106.756471 -70.339043 149.034072 32.061495 4.018652 130.473675 -15.703858 30.402067 -32.506383 29.284108 -6.594020 -42.336870 -16.443417 16.252826 54.291374 -15.165002 -0.787013 8.284851 -1.207350 0.314124 -4.024038
-205.562341 89.153012 378.417009 33.879705 -1.861845 110.729026 -8.062277 29.105526 -10.981406 26.027121 27.696830 -21.912915 2.932963 22.472270 15.232746 -6.895061 -27.709330 -13.947056 10.972412 14.226014 6.518470 6.140330 36.846518 -6.696171 12.344966 6.762861 -9.292109 -85.144155 120.423147 96.575665 -107.159412 90.577072 -225.077204 -24.834805 127.300970 -32.980313 -74.870191 -45.814867 -89.851596 -60.286658 62.288211 82.234842 106.304600 -69.639646 148.112666 31.846235 4.660704 131.074281 -17.693253 30.933462 -35.409975 29.580897 -5.375401 -53.518610 -19.654445 14.729030 65.033660 -16.318418 -1.026418 8.378554 -1.329082 -0.086983 -4.701061
-204.462067 88.472375 377.371134 35.495981 -2.086035 109.499796 -9.190014 31.572662 -8.995929 26.547719 27.806508 -21.257859 5.349995 22.231543 14.368331 -7.446014 -28.679698 -12.966702 12.135129 15.652330 6.881023 6.267152 37.083020 -6.385381 13.532144 5.682834 -9.417922 -87.734504 119.778063 99.200807 -105.311142 92.267291 -225.196268 -26.571196 131.313324 -31.958926 -74.438987 -47.075334 -91.199705 -60.576429 61.525763 81.458325 106.485559 -69.563687 147.891463 31.775853 4.243772 131.380383 -19.281467 31.551707 -37.400074 29.296638 -4.404309 -65.182722 -23.256529 13.328661 76.536211 -17.625628 -1.209922 8.465769 -1.458605 -0.612472 -5.463561
